HIERARCHY
ROOT Hips
{
	OFFSET 0.000000 88.474243 0.000000
	CHANNELS 6 Xposition Yposition Zposition Zrotation Yrotation Xrotation 
	JOINT Hips_Spine
	{
		OFFSET 0.000000 0.000000 0.000000
		CHANNELS 3 Zrotation Yrotation Xrotation
		JOINT Spine
		{
			OFFSET 0.005100 8.711998 -0.691000
			CHANNELS 3 Zrotation Yrotation Xrotation
			JOINT Spine1
			{
				OFFSET -0.009200 8.660301 -1.275000
				CHANNELS 3 Zrotation Yrotation Xrotation
				JOINT Spine2
				{
					OFFSET 0.006300 9.852501 -1.857000
					CHANNELS 3 Zrotation Yrotation Xrotation
					JOINT Spine2_Neck
					{
						OFFSET 0.000000 0.000000 0.000000
						CHANNELS 3 Zrotation Yrotation Xrotation
						JOINT Neck
						{
							OFFSET 0.016300 11.420799 -0.263300
							CHANNELS 3 Zrotation Yrotation Xrotation
							End Site #name: Head
							{
								OFFSET -0.019200 9.262405 2.362500
							}
						}
					}
					JOINT Spine2_LeftShoulder
					{
						OFFSET 0.000000 0.000000 0.000000
						CHANNELS 3 Zrotation Yrotation Xrotation
						JOINT LeftShoulder
						{
							OFFSET 5.616900 6.732201 -0.345700
							CHANNELS 3 Zrotation Yrotation Xrotation
							JOINT LeftArm
							{
								OFFSET 10.664888 -0.183372 -2.440700
								CHANNELS 3 Zrotation Yrotation Xrotation
								JOINT LeftForeArm
								{
									OFFSET 27.459126 0.000000 0.000000
									CHANNELS 3 Zrotation Yrotation Xrotation
									End Site #name: LeftHand
									{
										OFFSET 21.306858 0.000000 0.000000
									}
								}
							}
						}
					}
					JOINT Spine2_RightShoulder
					{
						OFFSET 0.000000 0.000000 0.000000
						CHANNELS 3 Zrotation Yrotation Xrotation
						JOINT RightShoulder
						{
							OFFSET -5.580300 6.737503 -0.344400
							CHANNELS 3 Zrotation Yrotation Xrotation
							JOINT RightArm
							{
								OFFSET -10.679335 -0.188484 -2.383900
								CHANNELS 3 Zrotation Yrotation Xrotation
								JOINT RightForeArm
								{
									OFFSET -27.503529 0.000000 0.000000
									CHANNELS 3 Zrotation Yrotation Xrotation
									End Site #name: RightHand
									{
										OFFSET -21.306808 0.000000 0.000000
									}
								}
							}
						}
					}
				}
			}
		}
	}
	JOINT Hips_LeftUpLeg
	{
		OFFSET 0.000000 0.000000 0.000000
		CHANNELS 3 Zrotation Yrotation Xrotation
		JOINT LeftUpLeg
		{
			OFFSET 6.857700 -6.739601 0.312100
			CHANNELS 3 Zrotation Yrotation Xrotation
			JOINT LeftLeg
			{
				OFFSET -0.367590 -34.731552 -4.572400
				CHANNELS 3 Zrotation Yrotation Xrotation
				End Site #name: LeftFoot
				{
					OFFSET 0.367590 -34.656704 -6.067400
				}
			}
		}
	}
	JOINT Hips_RightUpLeg
	{
		OFFSET 0.000000 0.000000 0.000000
		CHANNELS 3 Zrotation Yrotation Xrotation
		JOINT RightUpLeg
		{
			OFFSET -6.876100 -6.733299 0.301000
			CHANNELS 3 Zrotation Yrotation Xrotation
			JOINT RightLeg
			{
				OFFSET 0.347353 -34.795158 -4.515900
				CHANNELS 3 Zrotation Yrotation Xrotation
				End Site #name: RightFoot
				{
					OFFSET -0.347353 -34.589367 -6.070300
				}
			}
		}
	}
}
MOTION
Frames: 12
Frame Time: 0.041667
0.031955 -0.034754 -0.083886 178.509630 21.509126 -177.379402 -0.000000 -0.000000 0.000000 -2.930101 2.855897 -2.345987 1.321951 -0.369160 0.535533 0.000000 0.000000 0.000000 0.732382 -0.993268 -2.525607 -1.647523 -8.308015 -1.080016 0.677250 -0.051174 -1.084429 -3.938349 -7.259088 1.587373 -79.771570 -7.005408 10.686537 0.620224 -15.883105 3.908003 0.555196 -0.489619 -1.252821 18.229408 13.619219 4.239431 50.037095 17.120674 -12.280500 -9.956634 73.742737 -3.534827 0.000000 -0.000000 0.000000 -7.992685 18.586414 -14.858069 -7.469403 -37.617898 1.092108 -0.000000 -0.000000 -0.000000 -9.167470 -34.134085 -7.231104 -15.817880 -8.902814 17.622577 
-0.199759 -0.239419 -0.173463 177.239944 34.765303 -177.758587 -0.000000 -0.000000 0.000000 -4.817242 2.840408 0.534734 1.619864 -0.550439 -0.437143 0.000000 0.000000 0.000000 1.528325 -0.686403 -2.621620 -0.533650 -16.203073 -0.351214 0.935583 -0.290736 -1.806160 -2.806298 -8.712088 1.799771 -84.899641 -14.682468 7.194373 -1.247179 -13.713760 1.791110 1.392866 -0.838619 -0.227788 24.028504 16.345841 4.890209 48.596475 17.863060 -11.919774 0.498153 59.296379 5.857363 0.000000 -0.000000 -0.000000 -6.292679 19.829573 -12.610421 -4.085530 -35.291633 -4.769988 -0.000000 -0.000000 -0.000000 -9.672546 -41.886979 -5.817807 -13.983744 -4.292865 17.056224 
-0.290258 -0.351147 -0.234853 176.510675 22.569190 -178.329091 -0.000000 -0.000000 0.000000 -5.839506 0.082195 0.880293 1.861841 -0.568960 -1.163078 0.000000 0.000000 0.000000 1.977241 -0.865252 -2.893275 -1.119210 -25.768035 -0.096874 0.993950 -0.273997 -2.411770 -1.633430 -7.644244 1.066436 -85.391291 -16.052566 1.314208 -1.065252 -8.159472 2.093902 1.725560 -0.914124 -1.853092 25.664272 17.937195 5.758536 50.205546 18.356863 -5.943607 4.456813 55.669137 9.800858 0.000000 0.000000 -0.000000 -4.894097 20.903191 -11.311129 -3.054773 -34.257688 -6.841990 -0.000000 -0.000000 -0.000000 -10.327360 -48.826568 -3.481339 -13.578814 -3.350231 18.420284 
-0.209903 -0.424106 -0.286911 176.723750 10.760073 -178.810616 -0.000000 -0.000000 0.000000 -5.804487 -1.197915 1.640854 1.446391 -0.876050 -1.742076 0.000000 0.000000 0.000000 1.847772 -1.155937 -2.904033 -1.992741 -30.434252 0.129577 0.825776 -0.480547 -2.849541 -1.299626 -6.744928 0.688203 -86.047537 -17.127332 0.242845 -0.781540 -5.654017 2.190572 1.438158 -1.352180 -2.167884 24.477941 17.426484 5.761544 50.754241 17.776786 -3.261189 8.011798 54.612626 12.793535 -0.000000 0.000000 -0.000000 -4.199704 21.429930 -10.287665 -2.405831 -35.248739 -7.769044 -0.000000 -0.000000 -0.000000 -11.323654 -56.648415 -2.291108 -13.764972 -2.490948 19.968905 
-0.052413 -0.454174 -0.364761 176.481659 0.431782 -179.206317 -0.000000 -0.000000 0.000000 -5.250677 -1.288078 1.917471 0.947043 -1.144885 -1.949224 0.000000 0.000000 0.000000 1.590504 -1.390519 -2.445066 -2.042537 -31.942269 -0.023433 0.508959 -0.749817 -2.845189 -1.347964 -5.943623 0.498252 -86.480305 -18.041887 0.666358 0.187707 -4.926801 3.119380 0.973563 -1.649125 -1.806313 22.186731 16.361459 5.446512 51.534365 17.555677 -0.389899 9.540637 53.320903 13.424256 -0.000000 0.000000 -0.000000 -4.014565 21.860256 -9.908660 -2.089160 -36.170083 -8.356308 -0.000000 -0.000000 -0.000000 -12.213781 -61.827314 -1.596907 -13.929503 -1.779105 21.174056 
0.121498 -0.452692 -0.475103 175.804071 -8.180270 -179.394307 -0.000000 -0.000000 0.000000 -4.494469 -0.630038 2.114644 0.471516 -1.392692 -1.593442 0.000000 0.000000 0.000000 1.273805 -1.531179 -1.570485 -1.307131 -31.202787 -1.015812 0.178337 -0.962040 -2.329465 -1.495122 -5.142455 0.391670 -86.662111 -18.104179 1.491010 1.535151 -5.317801 4.383198 0.591852 -1.838261 -1.026953 20.145054 15.473167 5.066710 52.652584 16.835829 2.195427 8.987009 51.886425 12.552484 -0.000000 0.000000 -0.000000 -4.177207 21.809242 -9.857068 -1.929718 -36.901675 -8.918719 -0.000000 -0.000000 -0.000000 -12.589923 -64.671294 -1.502829 -14.295763 -1.438221 22.032283 
0.303061 -0.429594 -0.607257 174.939192 -14.872537 -179.226605 -0.000000 -0.000000 0.000000 -3.972038 0.500457 2.320527 0.077693 -1.489170 -0.764246 0.000000 0.000000 0.000000 0.983476 -1.579621 -0.558174 -0.583868 -29.395021 -2.129676 -0.027542 -1.080924 -1.660231 -1.695520 -4.277576 0.321012 -86.345049 -17.992577 2.494883 2.600772 -6.852452 5.318382 0.301700 -1.933178 -0.640686 18.479576 14.617367 4.470543 53.508265 15.045051 3.964168 8.302690 49.476541 11.788208 -0.000000 0.000000 -0.000000 -4.374770 21.374189 -9.861341 -1.844072 -37.545113 -9.589790 -0.000000 -0.000000 -0.000000 -12.616765 -66.408386 -1.666572 -15.032041 -1.701147 22.129530 
0.487994 -0.401560 -0.746947 174.275544 -19.699919 -178.962078 -0.000000 -0.000000 0.000000 -3.797001 1.738606 2.632535 -0.174913 -1.426577 0.143478 0.000000 0.000000 0.000000 0.690892 -1.521712 0.426121 -0.169124 -27.467825 -2.843320 -0.188058 -1.075488 -1.069374 -1.827602 -3.619867 0.301306 -85.622100 -17.970219 3.435158 3.290618 -9.330878 5.645434 0.048352 -1.929179 -0.330661 17.414292 13.869278 3.920931 54.062250 13.337294 4.765719 7.378647 45.898324 11.208304 0.000000 0.000000 -0.000000 -4.517406 20.873477 -9.848386 -1.790543 -38.071157 -10.136003 -0.000000 -0.000000 -0.000000 -12.647684 -67.594122 -1.853518 -15.881399 -2.195252 21.852983 
0.674269 -0.374882 -0.883482 173.779318 -23.960203 -178.694619 -0.000000 -0.000000 0.000000 -3.889657 2.795484 3.098372 -0.308845 -1.275292 0.878249 0.000000 0.000000 0.000000 0.435279 -1.424635 1.151358 -0.189499 -26.031675 -3.179629 -0.333215 -1.001533 -0.600229 -1.818326 -3.266997 0.333102 -84.711464 -18.102275 4.172930 3.676134 -12.907301 5.446973 -0.172440 -1.879919 -0.033628 16.704356 13.378840 3.558029 54.482744 12.370204 5.008529 7.139858 41.271174 11.162076 0.000000 0.000000 -0.000000 -4.525440 20.406351 -9.538838 -1.726988 -38.526702 -10.591158 -0.000000 -0.000000 -0.000000 -12.781964 -68.397731 -1.892671 -16.288188 -2.527763 21.306262 
0.855661 -0.345886 -1.025083 173.450838 -27.928730 -178.464581 -0.000000 -0.000000 0.000000 -4.203381 3.442685 3.466453 -0.412034 -1.142016 1.401255 0.000000 0.000000 0.000000 0.251040 -1.354431 1.633471 -0.111117 -25.470976 -3.232995 -0.450222 -0.940531 -0.275566 -1.635785 -3.218005 0.390536 -84.004867 -18.396658 4.744156 4.101299 -16.824549 4.837432 -0.359615 -1.844407 0.218688 16.222671 12.863124 3.247400 54.800736 11.690724 5.058452 7.783519 37.302697 11.521070 0.000000 0.000000 -0.000000 -4.400231 20.048416 -8.879788 -1.656716 -38.953575 -10.971573 -0.000000 -0.000000 -0.000000 -12.966771 -68.793865 -1.853496 -16.324791 -2.910449 20.846149 
1.029416 -0.311658 -1.176622 173.208575 -31.794800 -178.265083 -0.000000 -0.000000 0.000000 -4.639493 3.564725 3.811993 -0.515286 -1.153014 1.657735 0.000000 0.000000 0.000000 0.104436 -1.324020 1.910033 0.103573 -25.488952 -3.202531 -0.543093 -0.937280 -0.099006 -1.378621 -3.381242 0.468697 -83.467879 -18.790158 5.336329 4.668475 -20.607000 3.999857 -0.524199 -1.864501 0.374076 15.924363 12.299727 2.981242 55.008458 11.269563 4.918764 8.767969 34.751815 11.886475 0.000000 0.000000 -0.000000 -4.160297 19.823142 -8.127619 -1.678073 -39.362704 -11.156060 -0.000000 -0.000000 -0.000000 -13.355082 -68.878509 -1.572492 -16.111146 -3.632212 20.298016 
1.197634 -0.273821 -1.337600 173.060230 -34.916278 -178.104207 -0.000000 -0.000000 0.000000 -5.206100 3.301844 4.045020 -0.612277 -1.231711 1.763618 0.000000 0.000000 0.000000 0.008789 -1.341542 2.020412 0.362723 -25.729865 -3.186209 -0.609700 -0.981291 -0.026669 -1.089524 -3.634935 0.540757 -82.962020 -19.146345 6.033550 5.186586 -23.956105 3.182458 -0.642471 -1.933195 0.399519 15.798101 11.916832 2.801160 55.151446 11.110965 4.631071 9.728542 33.279908 12.167735 0.000000 0.000000 -0.000000 -3.917462 19.651059 -7.342036 -1.699720 -39.782798 -11.306128 -0.000000 -0.000000 -0.000000 -13.895496 -68.757792 -1.122912 -15.730897 -4.649234 19.602650 
